<!--?xml version="1.0" standalone="no"?-->
              <svg id="sw-js-blob-svg" viewBox="0 0 100 100" xmlns="http://www.w3.org/2000/svg" version="1.1">
                    <defs> 
                        <linearGradient id="sw-gradient" x1="0" x2="1" y1="1" y2="0">
                            <stop id="stop1" stop-color="rgba(20.149, 118.713, 86.994, 1)" offset="0%"></stop>
                            <stop id="stop2" stop-color="rgba(114.764, 110.593, 103.709, 1)" offset="100%"></stop>
                        </linearGradient>
                    </defs>
                <path fill="url(#sw-gradient)" d="M10,-10.7C17.4,-5.8,30.7,-6.8,33.5,-4C36.2,-1.2,28.3,5.3,22.7,11.4C17.1,17.5,13.8,23.2,10.3,21.6C6.8,19.9,3,10.9,-3.4,8.8C-9.8,6.7,-18.9,11.4,-20.6,10.8C-22.2,10.2,-16.4,4.1,-12.7,0.3C-9,-3.6,-7.4,-5.3,-5.7,-11.2C-3.9,-17.1,-1.9,-27.2,-0.3,-26.9C1.3,-26.5,2.7,-15.6,10,-10.7Z" width="100%" height="100%" transform="translate(50 50)" stroke-width="0" style="transition: all 0.3s ease 0s;" stroke="url(#sw-gradient)"></path>
              </svg>